<svg width="55%" height="55%" preserveAspectRatio="xMaxYMax" viewBox="0 0 236 68" fill="none" xmlns="http://www.w3.org/2000/svg">
<path stroke="#000000" id="nodejs-svg" stroke-width='2' d="M15.848 61.32C14.2693 61.32 13.1387 60.9787 12.456 60.296C11.7733 59.5707 11.432 58.2267 11.432 56.264C11.432 54.9413 11.56 53.3413 11.816 51.464C12.072 49.5867 12.52 46.7493 13.16 42.952C13.2453 42.44 13.5867 40.3707 14.184 36.744C14.7813 33.0747 15.3147 29.2347 15.784 25.224C16.2107 21.8107 16.424 19.2507 16.424 17.544C16.424 15.624 15.72 14.664 14.312 14.664C13.2453 14.664 11.9013 15.24 10.28 16.392C8.70133 17.5013 6.99467 19.2933 5.16 21.768C4.56267 22.5787 3.90133 22.984 3.176 22.984C2.57867 22.984 2.04533 22.7067 1.576 22.152C1.14933 21.5547 0.936 20.8933 0.936 20.168C0.936 19.4427 1.064 18.76 1.32 18.12C1.576 17.4373 2.04533 16.6267 2.728 15.688C4.81867 12.8293 7.144 10.632 9.704 9.096C12.264 7.51733 14.952 6.728 17.768 6.728C20.1147 6.728 21.864 7.45333 23.016 8.904C24.2107 10.3547 24.808 12.4667 24.808 15.24C24.808 17.7147 24.4667 21.2987 23.784 25.992C25.9173 19.6773 28.6267 14.8987 31.912 11.656C35.1973 8.37066 39.0587 6.728 43.496 6.728C46.9947 6.728 49.6187 7.73066 51.368 9.736C53.16 11.6987 54.056 14.344 54.056 17.672C54.056 19.5493 53.7787 21.832 53.224 24.52L49.32 42.824C48.8933 44.9573 48.68 46.792 48.68 48.328C48.68 50.12 49.0853 51.464 49.896 52.36C50.7493 53.256 51.9227 53.704 53.416 53.704C54.824 53.704 56.1893 53.2347 57.512 52.296C58.8773 51.3573 60.4773 49.8 62.312 47.624C62.824 47.0267 63.4 46.728 64.04 46.728C64.5947 46.728 65.0213 46.984 65.32 47.496C65.6613 48.008 65.832 48.712 65.832 49.608C65.832 51.272 65.4267 52.5947 64.616 53.576C62.3973 56.264 60.2 58.2267 58.024 59.464C55.848 60.7013 53.5653 61.32 51.176 61.32C47.5493 61.32 44.712 60.2533 42.664 58.12C40.616 55.944 39.592 53.0427 39.592 49.416C39.592 48.008 39.6987 46.472 39.912 44.808C40.168 43.144 40.5733 41.032 41.128 38.472L43.688 26.76C43.7733 26.376 43.9227 25.6933 44.136 24.712C44.3493 23.7307 44.52 22.8133 44.648 21.96C44.776 21.064 44.84 20.1893 44.84 19.336C44.84 17.9707 44.456 16.8827 43.688 16.072C42.92 15.2613 41.832 14.856 40.424 14.856C37.864 14.856 35.304 16.2213 32.744 18.952C30.184 21.6827 27.816 26.0987 25.64 32.2C23.464 38.2587 21.7573 46.024 20.52 55.496C20.2213 57.672 19.7733 59.1867 19.176 60.04C18.6213 60.8933 17.512 61.32 15.848 61.32ZM93.2745 41.352C93.8292 41.352 94.2558 41.6293 94.5545 42.184C94.8532 42.7387 95.0025 43.4427 95.0025 44.296C95.0025 46.344 94.3838 47.56 93.1465 47.944C90.5865 48.84 87.7705 49.352 84.6985 49.48C83.8878 53.064 82.2878 55.944 79.8985 58.12C77.5092 60.2533 74.7998 61.32 71.7705 61.32C69.2105 61.32 67.0132 60.7013 65.1785 59.464C63.3865 58.2267 62.0212 56.584 61.0825 54.536C60.1438 52.488 59.6745 50.2693 59.6745 47.88C59.6745 44.6373 60.2932 41.7573 61.5305 39.24C62.7678 36.68 64.4745 34.696 66.6505 33.288C68.8265 31.8373 71.2372 31.112 73.8825 31.112C77.1252 31.112 79.7278 32.2427 81.6905 34.504C83.6958 36.7227 84.8692 39.4747 85.2105 42.76C87.2158 42.632 89.6052 42.2053 92.3785 41.48C92.7198 41.3947 93.0185 41.352 93.2745 41.352ZM72.2825 54.536C73.6478 54.536 74.8212 53.9813 75.8025 52.872C76.8265 51.7627 77.5092 50.1627 77.8505 48.072C76.5278 47.176 75.5038 46.0027 74.7785 44.552C74.0958 43.1013 73.7545 41.5653 73.7545 39.944C73.7545 39.2613 73.8185 38.5787 73.9465 37.896H73.6265C71.9198 37.896 70.4905 38.728 69.3385 40.392C68.2292 42.0133 67.6745 44.3173 67.6745 47.304C67.6745 49.6507 68.1225 51.4427 69.0185 52.68C69.9572 53.9173 71.0452 54.536 72.2825 54.536ZM125.862 46.728C126.416 46.728 126.843 46.984 127.142 47.496C127.483 48.008 127.654 48.712 127.654 49.608C127.654 51.3147 127.248 52.6373 126.438 53.576C124.688 55.7093 122.768 57.544 120.678 59.08C118.587 60.5733 116.518 61.32 114.47 61.32C111.227 61.32 108.752 59.4213 107.046 55.624C105.254 57.8853 103.675 59.4 102.31 60.168C100.987 60.936 99.4295 61.32 97.6375 61.32C95.0348 61.32 92.8802 60.36 91.1735 58.44C89.5095 56.4773 88.6775 53.9387 88.6775 50.824C88.6775 47.4107 89.4028 44.2533 90.8535 41.352C92.3042 38.408 94.2882 36.0187 96.8055 34.184C99.3655 32.3067 102.224 31.1973 105.382 30.856C106.192 22.5787 107.728 15.5173 109.99 9.672C112.294 3.784 115.302 0.839996 119.014 0.839996C120.848 0.839996 122.363 1.672 123.558 3.336C124.795 5 125.414 7.51733 125.414 10.888C125.414 15.6667 124.24 21.256 121.894 27.656C119.547 34.056 116.411 40.6267 112.486 47.368C112.656 49.8427 113.019 51.6133 113.574 52.68C114.171 53.7467 114.918 54.28 115.814 54.28C116.966 54.28 118.139 53.768 119.333 52.744C120.528 51.72 122.128 50.0133 124.134 47.624C124.646 47.0267 125.222 46.728 125.862 46.728ZM118.31 7.112C117.499 7.112 116.688 8.56266 115.878 11.464C115.067 14.3227 114.363 18.0773 113.766 22.728C113.211 27.3787 112.806 32.2427 112.55 37.32C117.328 26.9093 119.718 18.5467 119.718 12.232C119.718 10.6107 119.568 9.352 119.27 8.456C119.014 7.56 118.694 7.112 118.31 7.112ZM99.8775 54.856C100.688 54.856 101.499 54.536 102.31 53.896C103.12 53.2133 104.144 51.976 105.382 50.184C104.955 47.88 104.742 45.2987 104.742 42.44C104.742 41.416 104.784 39.752 104.87 37.448C102.523 38.1733 100.56 39.752 98.9815 42.184C97.4455 44.5733 96.6775 47.24 96.6775 50.184C96.6775 53.2987 97.7442 54.856 99.8775 54.856ZM150.991 46.728C151.546 46.728 151.972 46.984 152.271 47.496C152.612 48.008 152.783 48.712 152.783 49.608C152.783 51.3147 152.378 52.6373 151.567 53.576C149.988 55.496 147.748 57.2667 144.847 58.888C141.988 60.5093 138.916 61.32 135.631 61.32C131.151 61.32 127.674 60.104 125.199 57.672C122.724 55.24 121.487 51.912 121.487 47.688C121.487 44.744 122.106 42.0133 123.343 39.496C124.58 36.936 126.287 34.9093 128.463 33.416C130.682 31.9227 133.178 31.176 135.951 31.176C138.426 31.176 140.41 31.9227 141.903 33.416C143.396 34.8667 144.143 36.8507 144.143 39.368C144.143 42.312 143.076 44.8507 140.943 46.984C138.852 49.0747 135.29 50.7387 130.255 51.976C131.322 53.9387 133.348 54.92 136.335 54.92C138.255 54.92 140.431 54.2587 142.863 52.936C145.338 51.5707 147.471 49.8 149.263 47.624C149.775 47.0267 150.351 46.728 150.991 46.728ZM134.863 37.448C133.284 37.448 131.94 38.3653 130.831 40.2C129.764 42.0347 129.231 44.2533 129.231 46.856V46.984C131.748 46.3867 133.732 45.4907 135.183 44.296C136.634 43.1013 137.359 41.7147 137.359 40.136C137.359 39.3253 137.124 38.6853 136.655 38.216C136.228 37.704 135.631 37.448 134.863 37.448ZM193.524 11.912C193.524 13.192 193.247 14.152 192.692 14.792C192.18 15.432 191.327 15.752 190.132 15.752C190.047 16.648 189.855 18.2053 189.556 20.424C189.129 23.4107 188.895 25.0747 188.852 25.416C185.055 53.704 177.14 67.848 165.108 67.848C161.567 67.848 158.793 66.8453 156.788 64.84C154.825 62.8347 153.844 60.3173 153.844 57.288C153.844 51.8693 156.148 47.0907 160.756 42.952C165.364 38.7707 171.423 35.3147 178.932 32.584C179.401 29.5547 179.764 26.8453 180.02 24.456L181.172 14.792C178.612 14.536 176.223 14.408 174.004 14.408C168.073 14.408 163.7 14.984 160.884 16.136C158.068 17.288 156.66 19.1653 156.66 21.768C156.66 23.048 157.087 24.4347 157.94 25.928C158.196 26.3547 158.324 26.8027 158.324 27.272C158.324 28.168 157.855 28.9787 156.916 29.704C156.02 30.3867 155.039 30.728 153.972 30.728C152.607 30.728 151.561 30.152 150.836 29C149.641 27.0373 149.044 24.7547 149.044 22.152C149.044 11.912 158.004 6.792 175.924 6.792C181.129 6.792 185.78 7.304 189.876 8.328C192.308 8.92533 193.524 10.12 193.524 11.912ZM165.94 61C168.031 61 170.121 59.4213 172.212 56.264C174.303 53.1067 176.137 47.5813 177.716 39.688C167.305 44.2533 162.1 49.8427 162.1 56.456C162.1 57.9067 162.441 59.0373 163.124 59.848C163.807 60.616 164.745 61 165.94 61ZM212.366 61.512C206.691 61.512 202.147 60.4453 198.734 58.312C195.32 56.136 193.614 52.8293 193.614 48.392C193.614 46.0453 194.019 44.2533 194.83 43.016C195.64 41.7787 196.835 41.16 198.414 41.16C199.566 41.16 200.504 41.4587 201.23 42.056C201.955 42.6533 202.318 43.4213 202.318 44.36C202.318 45.2133 202.254 45.96 202.126 46.6C202.126 46.7707 202.083 47.0693 201.998 47.496C201.955 47.9227 201.934 48.3707 201.934 48.84C201.934 50.76 202.894 52.1893 204.814 53.128C206.776 54.0667 209.507 54.536 213.006 54.536C216.632 54.536 219.47 53.896 221.518 52.616C223.566 51.2933 224.59 49.4587 224.59 47.112C224.59 45.6613 224.12 44.424 223.182 43.4C222.243 42.3333 221.07 41.4587 219.662 40.776C218.254 40.0507 216.27 39.176 213.71 38.152C210.424 36.872 207.736 35.656 205.646 34.504C203.598 33.352 201.827 31.7947 200.334 29.832C198.883 27.8267 198.158 25.352 198.158 22.408C198.158 19.336 198.968 16.6053 200.59 14.216C202.254 11.8267 204.622 9.97066 207.694 8.648C210.808 7.32533 214.456 6.664 218.638 6.664C221.752 6.664 224.611 7.13333 227.214 8.072C229.816 8.968 231.886 10.3547 233.422 12.232C235 14.1093 235.79 16.4133 235.79 19.144C235.79 21.832 235.384 23.8587 234.574 25.224C233.763 26.5893 232.568 27.272 230.99 27.272C229.88 27.272 228.942 26.9307 228.174 26.248C227.448 25.5653 227.086 24.7547 227.086 23.816C227.086 23.0053 227.15 22.2587 227.278 21.576C227.406 20.296 227.47 19.4853 227.47 19.144C227.47 17.352 226.595 15.9867 224.846 15.048C223.096 14.1093 220.92 13.64 218.318 13.64C214.648 13.64 211.832 14.3227 209.87 15.688C207.95 17.0107 206.99 18.888 206.99 21.32C206.99 22.9413 207.48 24.328 208.462 25.48C209.486 26.632 210.744 27.592 212.238 28.36C213.731 29.128 215.822 30.0453 218.51 31.112C221.752 32.4347 224.355 33.6293 226.318 34.696C228.28 35.7627 229.944 37.2133 231.31 39.048C232.718 40.8827 233.422 43.144 233.422 45.832C233.422 50.8667 231.502 54.7493 227.662 57.48C223.864 60.168 218.766 61.512 212.366 61.512Z" fill="#0000004d"/>
</svg>
