<svg width="42%" height="42%" preserveAspectRatio="xMaxYMax" viewBox="0 0 160 57" fill="none" xmlns="http://www.w3.org/2000/svg">
<path stroke="#ffffff" stroke-width='2' d="M59.784 41.728C60.3387 41.728 60.7653 41.984 61.064 42.496C61.4053 43.008 61.576 43.712 61.576 44.608C61.576 46.272 61.1707 47.5947 60.36 48.576C58.312 51.0507 56.2427 52.9707 54.152 54.336C52.0613 55.6587 49.5867 56.32 46.728 56.32C43.9547 56.32 41.5867 55.5733 39.624 54.08C37.704 52.5867 35.8693 50.0267 34.12 46.4C32.712 43.4987 31.6027 41.3653 30.792 40C29.9813 38.592 29.1707 37.5893 28.36 36.992C27.592 36.3947 26.632 36.032 25.48 35.904C25.3093 36.8 24.8187 39.616 24.008 44.352C23.6667 46.4853 23.4533 47.7867 23.368 48.256C22.9413 50.8587 22.088 52.864 20.808 54.272C19.528 55.6373 17.5867 56.32 14.984 56.32C12.1253 56.32 9.58667 55.488 7.368 53.824C5.192 52.1173 3.50667 49.7707 2.312 46.784C1.11733 43.7547 0.52 40.32 0.52 36.48C0.52 29.312 1.75733 23.1253 4.232 17.92C6.74933 12.7147 10.248 8.74667 14.728 6.016C19.2507 3.24267 24.456 1.856 30.344 1.856C34.44 1.856 37.8747 2.47467 40.648 3.712C43.4213 4.94933 45.4693 6.656 46.792 8.832C48.1573 11.008 48.84 13.4613 48.84 16.192C48.84 18.5813 48.264 20.928 47.112 23.232C46.0027 25.4933 44.3173 27.4987 42.056 29.248C39.7947 30.9973 37.0427 32.2987 33.8 33.152C35.848 33.7067 37.4267 34.6027 38.536 35.84C39.6453 37.0773 40.7547 38.8907 41.864 41.28C43.0587 43.84 44.232 45.7173 45.384 46.912C46.5787 48.1067 47.944 48.704 49.48 48.704C50.8453 48.704 52.1467 48.256 53.384 47.36C54.6213 46.4213 56.1787 44.8427 58.056 42.624C58.568 42.0267 59.144 41.728 59.784 41.728ZM16.648 35.84C15.1973 35.84 14.1947 35.4987 13.64 34.816C13.128 34.1333 12.872 33.3653 12.872 32.512C12.872 31.488 13.192 30.6773 13.832 30.08C14.5147 29.4827 15.2827 29.184 16.136 29.184H17.736C18.4187 25.0027 19.0587 21.3973 19.656 18.368C20.2107 15.5947 22.0027 14.208 25.032 14.208C27.464 14.208 28.68 15.296 28.68 17.472C28.68 17.9413 28.6587 18.304 28.616 18.56L26.696 29.184C29 29.056 31.0907 28.5013 32.968 27.52C34.888 26.5387 36.4027 25.1733 37.512 23.424C38.664 21.6747 39.24 19.6907 39.24 17.472C39.24 14.784 38.3227 12.672 36.488 11.136C34.6533 9.6 31.9653 8.832 28.424 8.832C24.2427 8.832 20.5733 9.87733 17.416 11.968C14.3013 14.016 11.8693 17.088 10.12 21.184C8.37067 25.2373 7.496 30.1867 7.496 36.032C7.496 38.7627 7.77333 41.1093 8.328 43.072C8.88267 45.0347 9.56533 46.5067 10.376 47.488C11.1867 48.4693 11.9547 48.96 12.68 48.96C13.2347 48.96 13.6827 48.6827 14.024 48.128C14.408 47.5733 14.7067 46.6773 14.92 45.44L16.648 35.84ZM83.6785 41.728C84.2332 41.728 84.6598 41.984 84.9585 42.496C85.2998 43.008 85.4705 43.712 85.4705 44.608C85.4705 46.3147 85.0652 47.6373 84.2545 48.576C82.6758 50.496 80.4358 52.2667 77.5345 53.888C74.6758 55.5093 71.6038 56.32 68.3185 56.32C63.8385 56.32 60.3612 55.104 57.8865 52.672C55.4118 50.24 54.1745 46.912 54.1745 42.688C54.1745 39.744 54.7932 37.0133 56.0305 34.496C57.2678 31.936 58.9745 29.9093 61.1505 28.416C63.3692 26.9227 65.8652 26.176 68.6385 26.176C71.1132 26.176 73.0972 26.9227 74.5905 28.416C76.0838 29.8667 76.8305 31.8507 76.8305 34.368C76.8305 37.312 75.7638 39.8507 73.6305 41.984C71.5398 44.0747 67.9772 45.7387 62.9425 46.976C64.0092 48.9387 66.0358 49.92 69.0225 49.92C70.9425 49.92 73.1185 49.2587 75.5505 47.936C78.0252 46.5707 80.1585 44.8 81.9505 42.624C82.4625 42.0267 83.0385 41.728 83.6785 41.728ZM67.5505 32.448C65.9718 32.448 64.6278 33.3653 63.5185 35.2C62.4518 37.0347 61.9185 39.2533 61.9185 41.856V41.984C64.4358 41.3867 66.4198 40.4907 67.8705 39.296C69.3212 38.1013 70.0465 36.7147 70.0465 35.136C70.0465 34.3253 69.8118 33.6853 69.3425 33.216C68.9158 32.704 68.3185 32.448 67.5505 32.448ZM87.819 56.32C85.1737 56.32 83.0617 55.36 81.483 53.44C79.9043 51.52 79.115 49.0027 79.115 45.888C79.115 42.4747 79.9043 39.2533 81.483 36.224C83.0617 33.152 85.1523 30.6987 87.755 28.864C90.4003 26.9867 93.195 26.048 96.139 26.048C97.0777 26.048 97.6963 26.24 97.995 26.624C98.3363 26.9653 98.6137 27.6053 98.827 28.544C99.723 28.3733 100.662 28.288 101.643 28.288C103.734 28.288 104.779 29.0347 104.779 30.528C104.779 31.424 104.459 33.5573 103.819 36.928C102.838 41.8347 102.347 45.248 102.347 47.168C102.347 47.808 102.496 48.32 102.795 48.704C103.136 49.088 103.563 49.28 104.075 49.28C104.886 49.28 105.867 48.768 107.019 47.744C108.171 46.6773 109.728 44.9707 111.691 42.624C112.203 42.0267 112.779 41.728 113.419 41.728C113.974 41.728 114.4 41.984 114.699 42.496C115.04 43.008 115.211 43.712 115.211 44.608C115.211 46.3147 114.806 47.6373 113.995 48.576C112.246 50.752 110.39 52.5867 108.427 54.08C106.464 55.5733 104.566 56.32 102.731 56.32C101.323 56.32 100.022 55.8507 98.827 54.912C97.675 53.9307 96.8003 52.608 96.203 50.944C93.9843 54.528 91.1897 56.32 87.819 56.32ZM90.123 49.856C91.0617 49.856 91.9577 49.3013 92.811 48.192C93.6643 47.0827 94.283 45.6107 94.667 43.776L97.035 32C95.243 32.0427 93.579 32.7253 92.043 34.048C90.5497 35.328 89.355 37.0347 88.459 39.168C87.563 41.3013 87.115 43.5627 87.115 45.952C87.115 47.2747 87.371 48.256 87.883 48.896C88.4377 49.536 89.1843 49.856 90.123 49.856ZM122.234 56.32C118.052 56.32 114.788 55.1467 112.442 52.8C110.138 50.4107 108.986 47.2747 108.986 43.392C108.986 39.936 109.668 36.9067 111.034 34.304C112.399 31.7013 114.17 29.696 116.345 28.288C118.522 26.88 120.804 26.176 123.194 26.176C125.54 26.176 127.354 26.88 128.634 28.288C129.956 29.6533 130.618 31.424 130.618 33.6C130.618 35.392 130.212 36.9067 129.402 38.144C128.634 39.3813 127.61 40 126.33 40C125.519 40 124.858 39.808 124.346 39.424C123.876 39.04 123.642 38.5067 123.642 37.824C123.642 37.5253 123.684 37.184 123.77 36.8C123.855 36.416 123.919 36.1387 123.962 35.968C124.175 35.328 124.282 34.7307 124.282 34.176C124.282 33.6213 124.132 33.1947 123.833 32.896C123.578 32.5973 123.194 32.448 122.682 32.448C121.7 32.448 120.783 32.896 119.93 33.792C119.076 34.6453 118.394 35.8187 117.882 37.312C117.37 38.8053 117.114 40.448 117.114 42.24C117.114 47.1893 119.268 49.664 123.578 49.664C125.327 49.664 127.204 49.088 129.21 47.936C131.258 46.7413 133.263 44.9707 135.226 42.624C135.738 42.0267 136.314 41.728 136.954 41.728C137.508 41.728 137.935 41.984 138.234 42.496C138.575 43.008 138.746 43.712 138.746 44.608C138.746 46.2293 138.34 47.552 137.53 48.576C135.524 51.0507 133.114 52.9707 130.298 54.336C127.524 55.6587 124.836 56.32 122.234 56.32ZM144.445 32.256C144.359 34.3893 144.317 36.0533 144.317 37.248C144.317 40.32 144.466 42.7307 144.765 44.48C145.106 46.1867 145.639 47.424 146.365 48.192C147.133 48.9173 148.178 49.28 149.501 49.28C150.183 49.28 150.994 49.0667 151.933 48.64C152.871 48.2133 153.725 47.6587 154.493 46.976C154.962 46.5493 155.431 46.336 155.901 46.336C156.413 46.336 156.818 46.6347 157.117 47.232C157.458 47.7867 157.629 48.4693 157.629 49.28C157.629 50.0907 157.458 50.88 157.117 51.648C156.818 52.416 156.349 53.056 155.709 53.568C153.49 55.4027 150.973 56.32 148.157 56.32C144.103 56.32 141.138 54.6347 139.26 51.264C137.383 47.8507 136.445 43.4133 136.445 37.952C136.445 36.0747 136.509 34.176 136.637 32.256H134.141C132.861 32.256 131.986 32.0213 131.517 31.552C131.09 31.0827 130.877 30.336 130.877 29.312C130.877 26.9227 131.837 25.728 133.757 25.728H137.405C138.13 21.0347 139.239 16.7467 140.733 12.864C142.226 8.98133 144.018 5.888 146.109 3.584C148.242 1.28 150.525 0.127998 152.957 0.127998C154.749 0.127998 156.157 0.917332 157.181 2.496C158.205 4.07467 158.717 6.05866 158.717 8.448C158.717 15.0613 155.943 20.8213 150.397 25.728H157.565C158.247 25.728 158.738 25.8773 159.037 26.176C159.335 26.4747 159.485 27.0293 159.485 27.84C159.485 30.784 157.074 32.256 152.253 32.256H144.445ZM151.229 6.272C150.589 6.272 149.863 7.08267 149.053 8.704C148.285 10.2827 147.538 12.5013 146.812 15.36C146.13 18.176 145.554 21.312 145.085 24.768C147.602 22.592 149.479 20.16 150.717 17.472C151.997 14.7413 152.637 12.2667 152.637 10.048C152.637 7.53067 152.167 6.272 151.229 6.272Z" fill="#000000"/>
</svg>
