<svg width="74%" height="74%" preserveAspectRatio="xMaxYMax" viewBox="0 0 284 86" fill="none" xmlns="http://www.w3.org/2000/svg">
<path stroke="#000000" id="typescript-svg" stroke-width='2' d="M51.824 2.88C53.1467 3.136 54.128 3.584 54.768 4.224C55.4507 4.864 55.792 5.61066 55.792 6.464C55.792 7.872 55.3867 8.896 54.576 9.536C53.808 10.176 52.5707 10.432 50.864 10.304C47.024 10.0053 44.016 9.81333 41.84 9.728C39.7067 9.6 36.8907 9.51466 33.392 9.472C31.8133 17.3227 30.3627 25.216 29.04 33.152C28.5707 36.0533 28.08 39.424 27.568 43.264C27.056 47.0613 26.7147 50.1333 26.544 52.48C26.4587 53.7173 25.9467 54.6773 25.008 55.36C24.0693 56 22.9387 56.32 21.616 56.32C20.208 56.32 19.12 55.9787 18.352 55.296C17.584 54.6133 17.2 53.7173 17.2 52.608C17.2 51.584 17.3493 49.8987 17.648 47.552C17.9893 45.1627 18.3733 42.6667 18.8 40.064C19.2693 37.4613 19.632 35.2 19.888 33.28C20.3573 30.0373 20.8907 26.816 21.488 23.616C22.0853 20.416 22.6827 17.3867 23.28 14.528C23.408 13.888 23.5573 13.1627 23.728 12.352C23.8987 11.4987 24.0907 10.56 24.304 9.536C20.1227 9.664 16.8373 10.0053 14.448 10.56C12.0587 11.1147 10.352 11.904 9.328 12.928C8.34667 13.9093 7.856 15.1893 7.856 16.768C7.856 18.2187 8.28267 19.6053 9.136 20.928C9.30667 21.2267 9.392 21.5467 9.392 21.888C9.392 22.6987 8.90133 23.4667 7.92 24.192C6.98133 24.8747 6 25.216 4.976 25.216C4.25067 25.216 3.65333 25.0027 3.184 24.576C2.33067 23.8507 1.62667 22.8267 1.072 21.504C0.517333 20.1387 0.24 18.6027 0.24 16.896C0.24 13.2693 1.41333 10.368 3.76 8.192C6.14933 5.97333 9.75467 4.352 14.576 3.328C19.44 2.304 25.6693 1.792 33.264 1.792C37.9573 1.792 41.6907 1.87733 44.464 2.048C47.28 2.21866 49.7333 2.496 51.824 2.88ZM76.5275 41.856C77.0822 41.856 77.5088 42.1333 77.8075 42.688C78.1488 43.2 78.3195 43.8613 78.3195 44.672C78.3195 45.6533 78.1702 46.4213 77.8715 46.976C77.5728 47.5307 77.1035 48.0213 76.4635 48.448L64.1755 56.704C62.5542 65.536 60.4208 72.4693 57.7755 77.504C55.1728 82.5813 51.8448 85.12 47.7915 85.12C45.6155 85.12 43.8448 84.4373 42.4795 83.072C41.1142 81.7493 40.4315 80 40.4315 77.824C40.4315 75.8187 40.8795 73.7707 41.7755 71.68C42.7142 69.5893 44.4208 67.1787 46.8955 64.448C49.4128 61.76 52.9542 58.6667 57.5195 55.168L57.7115 53.696C58.0102 52.1173 58.3515 49.856 58.7355 46.912C57.8822 49.984 56.6875 52.3307 55.1515 53.952C53.6155 55.5307 51.9942 56.32 50.2875 56.32C48.3675 56.32 46.7888 55.4453 45.5515 53.696C44.3568 51.904 43.7595 49.6853 43.7595 47.04C43.7595 43.84 43.9728 40.9173 44.3995 38.272C44.8262 35.584 45.5302 32.7467 46.5115 29.76C46.9382 28.48 47.5355 27.5627 48.3035 27.008C49.0715 26.4533 50.2875 26.176 51.9515 26.176C52.8902 26.176 53.5302 26.3253 53.8715 26.624C54.2555 26.9227 54.4475 27.3707 54.4475 27.968C54.4475 28.3093 54.2128 29.4613 53.7435 31.424C53.3168 33.0027 52.9755 34.432 52.7195 35.712C52.3782 37.4613 52.0795 39.1467 51.8235 40.768C51.5675 42.3467 51.4395 43.648 51.4395 44.672C51.4395 46.2933 51.8875 47.104 52.7835 47.104C53.4235 47.104 54.2128 46.464 55.1515 45.184C56.1328 43.904 57.1568 41.9627 58.2235 39.36C59.3328 36.7573 60.3995 33.5573 61.4235 29.76C61.7648 28.48 62.2768 27.5627 62.9595 27.008C63.6848 26.4533 64.7515 26.176 66.1595 26.176C67.1408 26.176 67.8235 26.304 68.2075 26.56C68.5915 26.816 68.7835 27.2427 68.7835 27.84C68.7835 28.9067 68.2288 32.576 67.1195 38.848L65.4555 49.152C68.7408 46.6773 71.9408 44.416 75.0555 42.368C75.6102 42.0267 76.1008 41.856 76.5275 41.856ZM48.4955 78.912C49.5622 78.912 50.7568 77.6747 52.0795 75.2C53.4022 72.7253 54.7248 68.608 56.0475 62.848C52.7622 65.6213 50.3728 68.1387 48.8795 70.4C47.4288 72.704 46.7035 74.7093 46.7035 76.416C46.7035 77.1413 46.8315 77.7387 47.0875 78.208C47.3862 78.6773 47.8555 78.912 48.4955 78.912ZM109.186 41.728C109.74 41.728 110.167 41.984 110.466 42.496C110.807 43.008 110.978 43.712 110.978 44.608C110.978 46.3147 110.572 47.6373 109.762 48.576C107.927 50.8373 105.943 52.6933 103.81 54.144C101.719 55.5947 99.3295 56.32 96.6415 56.32C94.3802 56.32 92.5455 55.5093 91.1375 53.888C88.7055 55.4667 86.1668 56.2773 83.5215 56.32C82.9668 64.5547 81.7082 71.424 79.7455 76.928C77.7828 82.4747 74.9028 85.248 71.1055 85.248C68.8015 85.248 67.0948 84.416 65.9855 82.752C64.8762 81.088 64.3215 78.784 64.3215 75.84C64.3215 71.6587 65.2815 66.7733 67.2015 61.184C69.1215 55.6373 72.0868 49.5147 76.0975 42.816C76.0975 36.5867 76.0548 32.256 75.9695 29.824C75.9268 28.5867 76.4175 27.6053 77.4415 26.88C78.4655 26.1547 79.7455 25.792 81.2815 25.792C82.1775 25.792 82.8175 25.984 83.2015 26.368C83.6282 26.7093 83.8628 27.4133 83.9055 28.48C83.9055 29.5467 83.9268 30.336 83.9695 30.848C85.3348 29.1413 86.6788 27.9253 88.0015 27.2C89.3242 26.432 90.7322 26.048 92.2255 26.048C94.6148 26.048 96.5562 27.008 98.0495 28.928C99.5855 30.848 100.354 33.3653 100.354 36.48C100.354 38.7413 99.9908 40.9387 99.2655 43.072C98.5402 45.2053 97.5375 47.1467 96.2575 48.896C97.1535 49.152 97.9002 49.28 98.4975 49.28C99.9055 49.28 101.25 48.768 102.53 47.744C103.81 46.72 105.452 45.0133 107.458 42.624C107.97 42.0267 108.546 41.728 109.186 41.728ZM83.8415 50.176C85.3775 49.8347 86.7855 49.0027 88.0655 47.68C89.3882 46.3147 90.4335 44.6507 91.2015 42.688C91.9695 40.6827 92.3535 38.592 92.3535 36.416C92.3535 35.136 92.0975 34.176 91.5855 33.536C91.0735 32.8533 90.3908 32.512 89.5375 32.512C88.0015 32.512 86.1455 34.1333 83.9695 37.376C83.9268 39.2533 83.9055 42.0053 83.9055 45.632C83.9055 47.5947 83.8842 49.1093 83.8415 50.176ZM71.6175 78.976C72.7695 78.976 73.7295 76.4587 74.4975 71.424C75.2655 66.432 75.7562 60.2027 75.9695 52.736C74.1348 57.0027 72.6842 61.0773 71.6175 64.96C70.5508 68.8427 70.0175 72.1067 70.0175 74.752C70.0175 76.1173 70.1882 77.1627 70.5295 77.888C70.8282 78.6133 71.1908 78.976 71.6175 78.976ZM134.366 41.728C134.921 41.728 135.347 41.984 135.646 42.496C135.987 43.008 136.158 43.712 136.158 44.608C136.158 46.3147 135.753 47.6373 134.942 48.576C133.363 50.496 131.123 52.2667 128.222 53.888C125.363 55.5093 122.291 56.32 119.006 56.32C114.526 56.32 111.049 55.104 108.574 52.672C106.099 50.24 104.862 46.912 104.862 42.688C104.862 39.744 105.481 37.0133 106.718 34.496C107.955 31.936 109.662 29.9093 111.838 28.416C114.057 26.9227 116.553 26.176 119.326 26.176C121.801 26.176 123.785 26.9227 125.278 28.416C126.771 29.8667 127.518 31.8507 127.518 34.368C127.518 37.312 126.451 39.8507 124.318 41.984C122.227 44.0747 118.665 45.7387 113.63 46.976C114.697 48.9387 116.723 49.92 119.71 49.92C121.63 49.92 123.806 49.2587 126.238 47.936C128.713 46.5707 130.846 44.8 132.638 42.624C133.15 42.0267 133.726 41.728 134.366 41.728ZM118.238 32.448C116.659 32.448 115.315 33.3653 114.206 35.2C113.139 37.0347 112.606 39.2533 112.606 41.856V41.984C115.123 41.3867 117.107 40.4907 118.558 39.296C120.009 38.1013 120.734 36.7147 120.734 35.136C120.734 34.3253 120.499 33.6853 120.03 33.216C119.603 32.704 119.006 32.448 118.238 32.448ZM142.851 57.728C140.632 57.728 138.926 57.216 137.731 56.192C136.579 55.168 136.003 54.016 136.003 52.736C136.003 51.6267 136.408 50.6667 137.219 49.856C138.03 49.0453 139.224 48.64 140.803 48.64C141.358 48.64 141.998 48.704 142.723 48.832C143.491 48.9173 144.067 48.9813 144.451 49.024C144.408 47.9147 144.152 46.8693 143.683 45.888C143.256 44.9067 142.702 43.968 142.019 43.072C141.336 42.1333 140.696 41.3227 140.099 40.64C138.776 43.1573 137.454 45.248 136.131 46.912C134.851 48.576 133.443 50.1547 131.907 51.648C131.139 52.416 130.328 52.8 129.475 52.8C128.792 52.8 128.238 52.5653 127.811 52.096C127.384 51.584 127.171 50.9653 127.171 50.24C127.171 49.3867 127.47 48.5973 128.067 47.872L128.899 46.848C131.246 43.9467 133.016 41.5573 134.211 39.68C134.936 38.4427 135.79 36.8 136.771 34.752C137.752 32.6613 138.712 30.5067 139.651 28.288C140.462 26.4107 142.147 25.472 144.707 25.472C145.902 25.472 146.734 25.5787 147.203 25.792C147.672 26.0053 147.907 26.3467 147.907 26.816C147.907 27.072 147.822 27.4773 147.651 28.032C147.48 28.5867 147.246 29.1413 146.947 29.696C146.179 31.232 145.795 32.5333 145.795 33.6C145.795 34.24 146.008 34.944 146.435 35.712C146.904 36.48 147.608 37.44 148.547 38.592C149.912 40.384 150.936 41.92 151.619 43.2C152.344 44.4373 152.707 45.8027 152.707 47.296C152.707 47.7227 152.664 48.32 152.579 49.088C154.67 48.2773 157.123 46.1227 159.939 42.624C160.451 42.0267 161.027 41.728 161.667 41.728C162.222 41.728 162.648 41.984 162.947 42.496C163.288 43.008 163.459 43.712 163.459 44.608C163.459 46.2293 163.054 47.552 162.243 48.576C160.11 51.2213 158.062 53.0347 156.099 54.016C154.179 54.9547 151.79 55.4667 148.931 55.552C147.224 57.0027 145.198 57.728 142.851 57.728ZM170.484 56.32C166.302 56.32 163.038 55.1467 160.692 52.8C158.388 50.4107 157.236 47.2747 157.236 43.392C157.236 39.936 157.918 36.9067 159.284 34.304C160.649 31.7013 162.42 29.696 164.595 28.288C166.772 26.88 169.054 26.176 171.444 26.176C173.79 26.176 175.604 26.88 176.884 28.288C178.206 29.6533 178.868 31.424 178.868 33.6C178.868 35.392 178.462 36.9067 177.652 38.144C176.884 39.3813 175.86 40 174.58 40C173.769 40 173.108 39.808 172.596 39.424C172.126 39.04 171.892 38.5067 171.892 37.824C171.892 37.5253 171.934 37.184 172.02 36.8C172.105 36.416 172.169 36.1387 172.212 35.968C172.425 35.328 172.532 34.7307 172.532 34.176C172.532 33.6213 172.382 33.1947 172.083 32.896C171.828 32.5973 171.444 32.448 170.932 32.448C169.95 32.448 169.033 32.896 168.18 33.792C167.326 34.6453 166.644 35.8187 166.132 37.312C165.62 38.8053 165.364 40.448 165.364 42.24C165.364 47.1893 167.518 49.664 171.828 49.664C173.577 49.664 175.454 49.088 177.46 47.936C179.508 46.7413 181.513 44.9707 183.476 42.624C183.988 42.0267 184.564 41.728 185.204 41.728C185.758 41.728 186.185 41.984 186.484 42.496C186.825 43.008 186.996 43.712 186.996 44.608C186.996 46.2293 186.59 47.552 185.78 48.576C183.774 51.0507 181.364 52.9707 178.548 54.336C175.774 55.6587 173.086 56.32 170.484 56.32ZM186.366 56.32C184.745 56.32 183.593 55.4667 182.91 53.76C182.27 52.0533 181.95 49.3227 181.95 45.568C181.95 40.0213 182.739 34.752 184.318 29.76C184.702 28.5227 185.321 27.6267 186.174 27.072C187.07 26.4747 188.307 26.176 189.886 26.176C190.739 26.176 191.337 26.2827 191.678 26.496C192.019 26.7093 192.19 27.1147 192.19 27.712C192.19 28.3947 191.87 29.9307 191.23 32.32C190.803 34.0267 190.462 35.52 190.206 36.8C189.95 38.08 189.737 39.6587 189.566 41.536C190.974 37.8667 192.553 34.88 194.302 32.576C196.051 30.272 197.758 28.6293 199.422 27.648C201.129 26.6667 202.686 26.176 204.094 26.176C206.867 26.176 208.254 27.5627 208.254 30.336C208.254 30.8907 208.062 32.2347 207.678 34.368C207.337 36.0747 207.166 37.1413 207.166 37.568C207.166 39.0613 207.699 39.808 208.766 39.808C209.961 39.808 211.497 38.8693 213.374 36.992C213.929 36.4373 214.505 36.16 215.102 36.16C215.657 36.16 216.083 36.416 216.382 36.928C216.723 37.3973 216.894 38.0373 216.894 38.848C216.894 40.4267 216.467 41.664 215.614 42.56C214.419 43.7973 213.011 44.864 211.39 45.76C209.811 46.6133 208.126 47.04 206.334 47.04C204.073 47.04 202.345 46.464 201.15 45.312C199.998 44.16 199.422 42.6027 199.422 40.64C199.422 40 199.486 39.36 199.614 38.72C199.699 37.8667 199.742 37.2907 199.742 36.992C199.742 36.3093 199.507 35.968 199.038 35.968C198.398 35.968 197.545 36.6933 196.478 38.144C195.454 39.552 194.43 41.4293 193.406 43.776C192.382 46.1227 191.55 48.5973 190.91 51.2C190.441 53.2053 189.886 54.5707 189.246 55.296C188.649 55.9787 187.689 56.32 186.366 56.32ZM219.331 21.952C217.539 21.952 216.195 21.5467 215.299 20.736C214.403 19.8827 213.955 18.7093 213.955 17.216C213.955 15.7227 214.531 14.4853 215.683 13.504C216.878 12.48 218.35 11.968 220.099 11.968C221.678 11.968 222.958 12.352 223.939 13.12C224.92 13.888 225.411 14.976 225.411 16.384C225.411 18.0907 224.856 19.456 223.747 20.48C222.638 21.4613 221.166 21.952 219.331 21.952ZM218.819 56.32C216.046 56.32 214.019 55.3387 212.739 53.376C211.502 51.4133 210.883 48.8107 210.883 45.568C210.883 43.648 211.118 41.1947 211.587 38.208C212.099 35.1787 212.739 32.3627 213.507 29.76C213.891 28.3947 214.403 27.456 215.043 26.944C215.683 26.432 216.707 26.176 218.115 26.176C220.291 26.176 221.379 26.9013 221.379 28.352C221.379 29.4187 220.974 31.8933 220.163 35.776C219.139 40.4693 218.627 43.648 218.627 45.312C218.627 46.592 218.798 47.5733 219.139 48.256C219.48 48.9387 220.056 49.28 220.867 49.28C221.635 49.28 222.595 48.7467 223.747 47.68C224.899 46.6133 226.435 44.928 228.355 42.624C228.867 42.0267 229.443 41.728 230.083 41.728C230.638 41.728 231.064 41.984 231.363 42.496C231.704 43.008 231.875 43.712 231.875 44.608C231.875 46.3147 231.47 47.6373 230.659 48.576C226.435 53.7387 222.488 56.32 218.819 56.32ZM260.873 41.728C261.428 41.728 261.854 41.984 262.153 42.496C262.494 43.008 262.665 43.712 262.665 44.608C262.665 46.3147 262.26 47.6373 261.449 48.576C259.614 50.8373 257.63 52.6933 255.497 54.144C253.406 55.5947 251.017 56.32 248.329 56.32C246.068 56.32 244.233 55.5093 242.825 53.888C240.393 55.4667 237.854 56.2773 235.209 56.32C234.654 64.5547 233.396 71.424 231.433 76.928C229.47 82.4747 226.59 85.248 222.793 85.248C220.489 85.248 218.782 84.416 217.673 82.752C216.564 81.088 216.009 78.784 216.009 75.84C216.009 71.6587 216.969 66.7733 218.889 61.184C220.809 55.6373 223.774 49.5147 227.785 42.816C227.785 36.5867 227.742 32.256 227.657 29.824C227.614 28.5867 228.105 27.6053 229.129 26.88C230.153 26.1547 231.433 25.792 232.969 25.792C233.865 25.792 234.505 25.984 234.889 26.368C235.316 26.7093 235.55 27.4133 235.593 28.48C235.593 29.5467 235.614 30.336 235.657 30.848C237.022 29.1413 238.366 27.9253 239.689 27.2C241.012 26.432 242.42 26.048 243.913 26.048C246.302 26.048 248.244 27.008 249.737 28.928C251.273 30.848 252.041 33.3653 252.041 36.48C252.041 38.7413 251.678 40.9387 250.953 43.072C250.228 45.2053 249.225 47.1467 247.945 48.896C248.841 49.152 249.588 49.28 250.185 49.28C251.593 49.28 252.937 48.768 254.217 47.744C255.497 46.72 257.14 45.0133 259.145 42.624C259.657 42.0267 260.233 41.728 260.873 41.728ZM235.529 50.176C237.065 49.8347 238.473 49.0027 239.753 47.68C241.076 46.3147 242.121 44.6507 242.889 42.688C243.657 40.6827 244.041 38.592 244.041 36.416C244.041 35.136 243.785 34.176 243.273 33.536C242.761 32.8533 242.078 32.512 241.225 32.512C239.689 32.512 237.833 34.1333 235.657 37.376C235.614 39.2533 235.593 42.0053 235.593 45.632C235.593 47.5947 235.572 49.1093 235.529 50.176ZM223.305 78.976C224.457 78.976 225.417 76.4587 226.185 71.424C226.953 66.432 227.444 60.2027 227.657 52.736C225.822 57.0027 224.372 61.0773 223.305 64.96C222.238 68.8427 221.705 72.1067 221.705 74.752C221.705 76.1173 221.876 77.1627 222.217 77.888C222.516 78.6133 222.878 78.976 223.305 78.976ZM268.07 32.256C267.984 34.3893 267.942 36.0533 267.942 37.248C267.942 40.32 268.091 42.7307 268.39 44.48C268.731 46.1867 269.264 47.424 269.99 48.192C270.758 48.9173 271.803 49.28 273.126 49.28C273.808 49.28 274.619 49.0667 275.558 48.64C276.496 48.2133 277.35 47.6587 278.118 46.976C278.587 46.5493 279.056 46.336 279.526 46.336C280.038 46.336 280.443 46.6347 280.742 47.232C281.083 47.7867 281.254 48.4693 281.254 49.28C281.254 50.0907 281.083 50.88 280.742 51.648C280.443 52.416 279.974 53.056 279.334 53.568C277.115 55.4027 274.598 56.32 271.782 56.32C267.728 56.32 264.763 54.6347 262.885 51.264C261.008 47.8507 260.07 43.4133 260.07 37.952C260.07 36.0747 260.134 34.176 260.262 32.256H257.766C256.486 32.256 255.611 32.0213 255.142 31.552C254.715 31.0827 254.502 30.336 254.502 29.312C254.502 26.9227 255.462 25.728 257.382 25.728H261.03C261.755 21.0347 262.864 16.7467 264.358 12.864C265.851 8.98133 267.643 5.888 269.734 3.584C271.867 1.28 274.15 0.127998 276.582 0.127998C278.374 0.127998 279.782 0.917332 280.806 2.496C281.83 4.07467 282.342 6.05866 282.342 8.448C282.342 15.0613 279.568 20.8213 274.022 25.728H281.19C281.872 25.728 282.363 25.8773 282.662 26.176C282.96 26.4747 283.11 27.0293 283.11 27.84C283.11 30.784 280.699 32.256 275.878 32.256H268.07ZM274.854 6.272C274.214 6.272 273.488 7.08267 272.678 8.704C271.91 10.2827 271.163 12.5013 270.438 15.36C269.755 18.176 269.179 21.312 268.71 24.768C271.227 22.592 273.104 20.16 274.342 17.472C275.622 14.7413 276.262 12.2667 276.262 10.048C276.262 7.53067 275.792 6.272 274.854 6.272Z" fill="#0000004d"/>
</svg>
